<?xml version="1.0" standalone="no"?>
<!DOCTYPE svg PUBLIC "-//W3C//DTD SVG 20010904//EN"
 "http://www.w3.org/TR/2001/REC-SVG-20010904/DTD/svg10.dtd">
<svg version="1.0" xmlns="http://www.w3.org/2000/svg"
 width="128.000000pt" height="128.000000pt" viewBox="0 0 128.000000 128.000000"
 preserveAspectRatio="xMidYMid meet">
<metadata>
Created by potrace 1.14, written by Peter Selinger 2001-2017
</metadata>
<g transform="translate(0.000000,128.000000) scale(0.100000,-0.100000)"
fill="#000000" stroke="none">
<path d="M778 1255 c-1 -2 -41 -6 -88 -9 -172 -12 -265 -38 -338 -93 -31 -23
-38 -24 -70 -14 -69 21 -90 20 -141 -5 -90 -45 -119 -159 -56 -224 16 -17 37
-32 47 -36 16 -5 18 -12 13 -36 -4 -17 -9 -38 -10 -47 -2 -9 -4 -16 -5 -16 -2
0 -4 -16 -6 -35 -2 -19 -6 -57 -8 -85 -3 -27 -6 -125 -6 -216 l-1 -166 -52 1
-52 1 -3 -137 -3 -138 641 0 640 0 0 554 0 555 -32 24 c-29 21 -126 62 -195
82 -41 12 -115 23 -193 31 -30 3 -60 7 -67 9 -6 2 -13 2 -15 0z"/>
</g>
</svg>
